<?xml version="1.0" encoding="UTF-8" standalone="no"?>
<svg
   width="24"
   height="24"
   viewBox="0 0 24 24"
   fill="none"
   version="1.1"
   id="svg36"
   sodipodi:docname="eye.svg"
   inkscape:version="1.2.1 (9c6d41e410, 2022-07-14)"
   xmlns:inkscape="http://www.inkscape.org/namespaces/inkscape"
   xmlns:sodipodi="http://sodipodi.sourceforge.net/DTD/sodipodi-0.dtd"
   xmlns="http://www.w3.org/2000/svg"
   xmlns:svg="http://www.w3.org/2000/svg">
  <defs
     id="defs40" />
  <sodipodi:namedview
     id="namedview38"
     pagecolor="#505050"
     bordercolor="#eeeeee"
     borderopacity="1"
     inkscape:showpageshadow="0"
     inkscape:pageopacity="0"
     inkscape:pagecheckerboard="0"
     inkscape:deskcolor="#505050"
     showgrid="false"
     inkscape:zoom="33.916667"
     inkscape:cx="12"
     inkscape:cy="12.014742"
     inkscape:window-width="1920"
     inkscape:window-height="1001"
     inkscape:window-x="-9"
     inkscape:window-y="-9"
     inkscape:window-maximized="1"
     inkscape:current-layer="svg36" />
  <path
     style="color:#000000;fill:#ffffff;stroke-linecap:round;stroke-linejoin:round;-inkscape-stroke:none"
     d="M 12,3 C 4.333341,3 1.0800781,10.605469 1.0800781,10.605469 a 1.0001,1.0001 0 0 0 0,0.789062 C 1.0800781,11.394531 4.333341,19 12,19 c 7.666659,0 10.919922,-7.605469 10.919922,-7.605469 a 1.0001,1.0001 0 0 0 0,-0.789062 C 22.919922,10.605469 19.666659,3 12,3 Z m 0,2 c 5.942323,0 8.491197,5.304985 8.8125,6 C 20.491197,11.695015 17.942323,17 12,17 6.0576765,17 3.5088032,11.695015 3.1875,11 3.5088032,10.304985 6.0576765,5 12,5 Z"
     id="path32" />
  <path
     style="color:#000000;fill:#ffffff;stroke-linecap:round;stroke-linejoin:round;-inkscape-stroke:none"
     d="m 12,7 c -2.1973247,0 -4,1.8027291 -4,4 0,2.197305 1.8026954,4 4,4 2.197305,0 4,-1.802695 4,-4 0,-2.1972709 -1.802675,-4 -4,-4 z m 0,2 c 1.116472,0 2,0.8835742 2,2 0,1.116492 -0.883508,2 -2,2 -1.116492,0 -2,-0.883508 -2,-2 0,-1.1164258 0.883528,-2 2,-2 z"
     id="path34" />
</svg>
