<svg width="40" height="40" viewBox="0 0 40 40" fill="none" xmlns="http://www.w3.org/2000/svg">
<circle cx="20" cy="20" r="20" fill="#313131"/>
<path d="M15.2346 22.6445C14.6089 22.6445 14.0726 22.8222 13.7151 23.2667C13.2682 23.7111 13.0894 24.2444 13.0894 24.7778C13.0894 25.4 13.2682 25.9333 13.7151 26.2889C14.162 26.7333 14.6983 26.9111 15.2346 26.9111C15.8603 26.9111 16.3967 26.7333 16.7542 26.2889C17.2011 25.8444 17.3799 25.3111 17.3799 24.7778C17.3799 24.1556 17.2011 23.6222 16.7542 23.2667C16.3967 22.8222 15.8603 22.6445 15.2346 22.6445Z" fill="white"/>
<path d="M20.3296 19.8C19.4358 18.9111 18.4525 18.2889 17.3799 17.7556C16.3073 17.2222 15.1452 16.9556 13.8939 16.8667H13.8045C13.6257 16.8667 13.4469 16.9556 13.2682 17.0444C13.0894 17.2222 13 17.4 13 17.5778V19.0889C13 19.2667 13.0894 19.4445 13.1788 19.5333C13.2682 19.7111 13.4469 19.7111 13.6257 19.8C15.4134 19.9778 16.8436 20.6889 18.095 21.9333C19.3464 23.1778 20.0614 24.6889 20.2402 26.3778C20.2402 26.5556 20.3296 26.7333 20.5084 26.8222C20.6872 26.9111 20.7765 27 21.0447 27H22.5642C22.743 27 22.9218 26.9111 23.1006 26.7333C23.2793 26.5556 23.2793 26.3778 23.2793 26.2C23.1899 24.9556 22.8324 23.8 22.3855 22.7333C21.8491 21.5778 21.1341 20.6 20.3296 19.8Z" fill="white"/>
<path d="M27.7486 20.5111C26.9441 18.7333 25.7821 17.0444 24.352 15.7111C22.9218 14.2889 21.3129 13.2222 19.5251 12.3333C17.7374 11.5333 15.771 11.0889 13.8045 11C13.6257 11 13.4469 11.0889 13.2682 11.1778C13.0894 11.3556 13 11.5333 13 11.7111V13.3111C13 13.4889 13.0894 13.6667 13.1788 13.8444C13.2682 14.0222 13.4469 14.0222 13.6257 14.0222C15.2346 14.1111 16.8436 14.4667 18.2738 15.1778C19.7039 15.8889 21.0447 16.6889 22.1173 17.8444C23.1899 18.9111 24.0838 20.1556 24.7989 21.6667C25.514 23.0889 25.8715 24.6889 25.9609 26.2889C25.9609 26.4667 26.0503 26.6444 26.1397 26.7333C26.3184 26.8222 26.4078 26.9111 26.676 26.9111H28.2849C28.4637 26.9111 28.6424 26.8222 28.8212 26.6445C29 26.4667 29 26.2889 29 26.1111C29 24.2444 28.5531 22.3778 27.7486 20.5111Z" fill="white"/>
</svg>
