<svg width="40" height="40" viewBox="0 0 40 40" fill="none" xmlns="http://www.w3.org/2000/svg">
<g clip-path="url(#clip0_21_2458)">
<path d="M20 40C31.0457 40 40 31.0457 40 20C40 8.95432 31.0457 0 20 0C8.95432 0 0 8.95432 0 20C0 31.0457 8.95432 40 20 40Z" fill="#34AADF"/>
<path d="M9.22617 19.4035C9.22617 19.4035 18.0717 15.6717 21.1395 14.3577C22.3155 13.8321 26.3036 12.1501 26.3036 12.1501C26.3036 12.1501 28.1443 11.4143 27.9909 13.2013C27.9398 13.9372 27.5307 16.5127 27.1217 19.2984C26.5081 23.2405 25.8434 27.5505 25.8434 27.5505C25.8434 27.5505 25.7412 28.7595 24.872 28.9697C24.0028 29.18 22.5711 28.2339 22.3155 28.0236C22.1109 27.866 18.4807 25.5007 17.1513 24.3443C16.7934 24.029 16.3844 23.3983 17.2024 22.6624C19.0431 20.9278 21.2417 18.7728 22.5711 17.4063C23.1847 16.7755 23.7982 15.3038 21.2417 17.0908C17.6115 19.6664 14.0324 22.0842 14.0324 22.0842C14.0324 22.0842 13.2143 22.6098 11.6804 22.1367C10.1465 21.6637 8.3569 21.033 8.3569 21.033C8.3569 21.033 7.12985 20.2445 9.22617 19.4035Z" fill="white"/>
</g>
<defs>
<clipPath id="clip0_21_2458">
<rect width="40" height="40" fill="white"/>
</clipPath>
</defs>
</svg>
