<svg width="40" height="40" viewBox="0 0 40 40" fill="none" xmlns="http://www.w3.org/2000/svg">
<circle cx="20" cy="20" r="20" fill="#DF1F1F"/>
<path d="M30 18.7576C30 18.303 29.927 17.7727 29.927 17.1667C29.854 16.5606 29.781 15.9545 29.708 15.4242C29.562 14.8182 29.3431 14.3636 28.9051 13.9849C28.5401 13.6061 28.0292 13.3788 27.5183 13.303C25.8394 13.0758 23.3577 13 20 13C16.6423 13 14.0876 13.0758 12.4817 13.303C11.9708 13.3788 11.4599 13.6061 11.0949 13.9849C10.7299 14.3636 10.438 14.8182 10.292 15.4242C10.146 15.9545 10.073 16.4848 10.073 17.1667C10 17.7727 10 18.303 10 18.7576C10 19.2121 10 19.7424 10 20.5C10 21.2576 10 21.8636 10 22.2424C10 22.697 10.073 23.2273 10.073 23.8333C10.146 24.4394 10.219 25.0454 10.292 25.5757C10.438 26.1818 10.6569 26.6364 11.0949 27.0151C11.4599 27.3939 11.9708 27.6212 12.4817 27.697C14.1606 27.9242 16.6423 28 20 28C23.3577 28 25.9124 27.9242 27.5183 27.697C28.0292 27.6212 28.5401 27.3939 28.9051 27.0151C29.2701 26.6364 29.562 26.1818 29.708 25.5757C29.854 25.0454 29.927 24.5152 29.927 23.8333C30 23.2273 30 22.697 30 22.2424C30 21.7879 30 21.2576 30 20.5C30 19.7424 30 19.1364 30 18.7576ZM23.8686 21.1061L18.1022 24.8182C18.0292 24.8939 17.8832 24.9697 17.7372 24.9697C17.5912 24.9697 17.5183 24.9697 17.3723 24.8939C17.1533 24.7424 17.0073 24.5152 17.0073 24.2121V16.7121C17.0073 16.4091 17.1533 16.1818 17.3723 16.0303C17.5912 15.8788 17.8832 15.8788 18.1022 16.0303L23.8686 19.7424C24.0876 19.8939 24.2336 20.1212 24.2336 20.3485C24.2336 20.5758 24.0876 20.9545 23.8686 21.1061Z" fill="white"/>
</svg>
