<svg width="43" height="43" viewBox="0 0 43 43" fill="none" xmlns="http://www.w3.org/2000/svg">
<path d="M21.0444 0C15.7839 0.0925264 10.7412 2.11922 6.88057 5.69325L21.5005 20.3131L26.9871 14.8176C23.2392 10.7853 21.1212 5.50454 21.0444 0Z" fill="white"/>
<path d="M20.2874 21.4998L5.6675 6.87993C2.10271 10.7449 0.085213 15.787 0 21.0438C5.49589 21.1271 10.7661 23.2441 14.7919 26.9862L20.2874 21.4998Z" fill="white"/>
<path d="M37.3064 6.87997L29.4375 14.7405C33.1255 18.1827 37.9557 20.1401 42.9999 20.2356C42.7162 15.2565 40.7023 10.5329 37.3064 6.87997Z" fill="white"/>
<path d="M36.1201 5.69357C32.4674 2.29773 27.7435 0.284069 22.7641 0.000320062C22.8586 5.02779 24.8027 9.84355 28.225 13.5283L36.1201 5.69357Z" fill="white"/>
<path d="M14.7747 29.4373L6.88006 37.3062C10.5327 40.702 15.2566 42.7157 20.236 42.9994C20.15 37.9601 18.2046 33.1308 14.7747 29.4373Z" fill="white"/>
<path d="M13.5628 28.2254C9.86989 24.7955 5.04007 22.8504 0.0005121 22.7645C0.284231 27.7436 2.29792 32.4675 5.69376 36.1204L13.5628 28.2254Z" fill="white"/>
<path d="M28.2082 16.0136L22.7127 21.5003L37.3325 36.1202C40.8938 32.2528 42.9106 27.2123 43 21.9563C37.5041 21.873 32.2339 19.7557 28.2082 16.0136Z" fill="white"/>
<path d="M21.5 22.7127L16.0134 28.2082C19.7555 32.2341 21.8724 37.5042 21.9558 43.0001C27.2163 42.9076 32.259 40.8809 36.1196 37.3068L21.5 22.7127Z" fill="white"/>
</svg>
