<svg width="49" height="45" viewBox="0 0 49 45" fill="none" xmlns="http://www.w3.org/2000/svg">
<path d="M16.9434 13.4354C17.074 13.4312 17.2363 13.5167 17.3048 13.6245L29.9882 33.6004C30.0567 33.7082 30.0072 33.8122 29.8786 33.8312C29.8786 33.8312 26.9104 34.2729 25.0681 34.7257C18.1657 36.4236 14.6425 38.2708 14.6425 38.2708C14.5273 38.3313 14.376 38.2929 14.3076 38.1851L1.60609 18.1792C1.53764 18.0714 1.57338 17.9278 1.68512 17.8599C1.68512 17.8599 4.93702 15.9043 8.99168 14.7279C13.0463 13.5516 16.9434 13.4354 16.9434 13.4354Z" fill="white"/>
<path d="M31.8482 32.5809C31.7763 32.6892 31.6611 32.6897 31.5926 32.5819L18.9107 12.6051C18.8424 12.4975 18.8343 12.3146 18.8935 12.1979C18.8935 12.1979 20.6566 8.72051 23.4462 5.55155C26.2355 2.38281 29.389 0.271638 29.389 0.271638C29.4976 0.198847 29.643 0.227876 29.7114 0.335688L42.4129 20.3416C42.4814 20.4494 42.4517 20.6026 42.3479 20.6812C42.3479 20.6812 39.1773 23.0839 34.7043 28.608C33.5102 30.0825 31.8482 32.5809 31.8482 32.5809Z" fill="white"/>
<path d="M12.7014 39.205L12.7016 39.2052C12.77 39.313 12.882 39.4894 12.9508 39.5972L13.6158 40.6408C13.6845 40.7485 13.8359 40.7871 13.9515 40.7271L15.0748 40.1426C15.1908 40.082 15.3806 39.9837 15.4971 39.924C15.4971 39.924 18.9408 38.1523 25.4861 36.5421C27.0115 36.1664 32.4919 35.1746 32.4919 35.1746C32.5497 35.0577 33.4302 33.374 33.56 33.3718C33.56 33.3718 35.1806 30.9808 36.1692 29.7603C40.4113 24.5217 43.4794 22.1591 43.4794 22.1591C43.5832 22.0794 43.7532 21.9496 43.857 21.8699L44.8638 21.102C44.9674 21.0232 44.9967 20.8695 44.9286 20.7615L44.267 19.7157C44.1993 19.6066 44.0873 19.4301 44.0188 19.3223L33.3098 2.45425C33.2413 2.34644 33.2909 2.27042 33.4196 2.28505C33.4196 2.28505 34.2562 2.38088 35.2594 2.59246C36.2627 2.80431 36.8664 3.00761 36.8664 3.00761C36.9884 3.04877 37.1446 3.17037 37.2132 3.27845L48.9586 21.7783C49.027 21.8861 48.9975 22.0396 48.8941 22.1187L45.8511 24.4404C45.7475 24.5192 45.5777 24.6504 45.4751 24.7309C45.4751 24.7309 42.6443 26.9455 38.7324 31.776C38.2382 32.3865 37.4475 33.4602 37.4475 33.4602C37.3701 33.5654 37.3064 33.6515 37.3064 33.6515C37.3064 33.6515 35.3297 36.1388 33.472 37.3182C31.6146 38.4974 28.5238 39.2267 28.5238 39.2267C28.5238 39.2267 28.4188 39.2477 28.2907 39.273C28.2907 39.273 26.9827 39.5314 26.2198 39.7193C20.1834 41.2045 16.9755 42.8242 16.9755 42.8242C16.8592 42.883 16.6684 42.9811 16.5527 43.0408L13.157 44.807C13.0424 44.8667 12.8911 44.8283 12.8224 44.72L1.07749 26.2208C1.00904 26.113 0.965447 25.9199 0.980212 25.7915C0.980212 25.7915 1.05337 25.1585 1.2882 24.1606C1.52333 23.1624 1.79269 22.3648 1.79269 22.3648C1.83366 22.2425 1.92383 22.2298 1.99227 22.3376L12.7014 39.205Z" fill="white"/>
</svg>
