<svg width="50" height="48" viewBox="0 0 50 48" fill="none" xmlns="http://www.w3.org/2000/svg">
<path d="M1.40406 28.5726C8.68568 17.0756 23.3504 12.9627 30.6322 1.46589C31.4481 0.186633 32.8486 -0.113197 33.8963 0.934405L48.0808 15.119C49.1276 16.1658 49.4274 18.1635 48.6113 19.445C41.3295 30.9398 26.665 35.0549 19.3832 46.5496C18.566 47.8301 17.1677 48.1297 16.1189 47.0809L1.93434 32.8963C0.887374 31.8518 0.587115 29.8529 1.40406 28.5726ZM12.7157 39.6844C15.1318 37.8556 18.8006 38.1523 21.5384 39.3876C27.775 33.0592 36.2225 28.9428 42.459 22.6143C41.2015 19.8527 40.8801 16.1589 41.79 12.8238L37.2992 8.33305C34.8831 10.1619 31.2144 9.86514 28.4765 8.62981C22.24 14.9583 13.7924 19.0746 7.55591 25.4031C8.81346 28.1648 9.13623 31.8576 8.22614 35.1928C9.72232 36.691 11.2185 38.1872 12.7157 39.6844Z" fill="white"/>
<path d="M20.0135 19.0146C23.2558 16.7413 28.0131 17.0279 30.7627 19.7755C33.5295 22.5423 33.2449 26.7304 30.0016 29.0026C26.7583 31.2749 22.0009 30.9903 19.2524 28.2418C16.4866 25.476 16.7712 21.2878 20.0135 19.0146Z" fill="white"/>
</svg>
