<svg width="38" height="38" viewBox="0 0 38 38" fill="none" xmlns="http://www.w3.org/2000/svg">
<path fill-rule="evenodd" clip-rule="evenodd" d="M25.9972 35.8588C35.4884 32.0659 40.1077 21.297 36.3148 11.8058C32.5219 2.31467 21.753 -2.30468 12.2619 1.48824C2.77069 5.28115 -1.84866 16.05 1.94426 25.5412C5.73718 35.0324 16.5061 39.6517 25.9972 35.8588ZM12.8103 8.83564L16.9292 7.1896C18.0532 6.74041 19.3286 7.28747 19.7778 8.41151L21.5884 12.9424L26.1193 11.1317C27.2433 10.6825 28.5187 11.2296 28.9679 12.3536L30.6139 16.4726C31.0631 17.5966 30.516 18.872 29.392 19.3211L24.8611 21.1318L26.6718 25.6626C27.121 26.7867 26.5739 28.062 25.4499 28.5112L21.3309 30.1573C20.2069 30.6065 18.9315 30.0594 18.4823 28.9353L16.6717 24.4045L12.1409 26.2151C11.0168 26.6643 9.74147 26.1173 9.29228 24.9932L7.64624 20.8743C7.19705 19.7503 7.74411 18.4749 8.86815 18.0257L13.399 16.2151L11.5884 11.6842C11.1392 10.5602 11.6862 9.28483 12.8103 8.83564Z" fill="white"/>
</svg>
