<svg width="49" height="44" viewBox="0 0 49 44" fill="none" xmlns="http://www.w3.org/2000/svg">
<path d="M1.3697 21.1378C6.27457 22.5509 10.8354 20.5449 13.6005 19.0182C16.3642 17.4905 20.491 14.6946 21.9033 9.79102C23.3159 4.88738 40.995 34.5484 26.5816 42.5129C12.1684 50.4766 -3.53684 19.7258 1.3697 21.1378ZM21.8198 20.0602C18.487 20.8696 20.1161 24.4376 20.1161 24.4376C22.7311 24.1952 25.906 21.2376 25.906 21.2376C25.906 21.2376 25.152 19.249 21.8198 20.0602ZM23.9623 37.7741C29.5443 34.8186 26.8339 27.8112 26.561 29.2529C26.2856 30.694 23.8643 32.9328 21.8913 34.0239C19.9159 35.1152 16.732 35.9739 15.3662 35.4404C14.0022 34.9042 18.4901 40.9283 23.9623 37.7741ZM8.9274 30.6198C8.9274 30.6198 13.1226 29.5053 14.7195 27.4205C14.7195 27.4205 12.5656 24.1444 10.1068 26.5335C7.64603 28.9226 8.9274 30.6198 8.9274 30.6198Z" fill="white"/>
<path d="M32.2243 23.3884C32.861 23.3412 33.4904 23.3205 34.0565 23.3314C36.3106 23.3733 39.5055 23.941 40.4274 24.6837C41.3491 25.4253 40.4252 20.6238 34.1074 20.5779C33.059 20.5461 32.1663 20.66 31.3913 20.8541C31.2448 20.4475 31.1073 20.0438 30.9445 19.6315C30.4517 18.3745 29.586 16.4243 28.5284 14.4736C31.324 14.1403 30.7514 10.7126 30.7514 10.7126C29.4723 10.4932 27.8869 10.8807 26.6137 11.3286C25.1103 9.18175 23.4666 7.62869 22.0268 7.98564C21.3607 8.15079 20.852 8.6761 20.6345 9.42645C20.5654 9.66719 20.4706 9.89935 20.3842 10.135C20.2321 4.18776 21.3504 -0.254612 22.7418 1.18766C26.2824 4.86443 31.2341 5.40879 34.3933 5.46772C37.5503 5.52636 42.5197 5.16868 46.1959 1.62905C49.8724 -1.91269 50.352 32.6149 33.8894 32.3061C33.7491 32.3027 33.6136 32.2926 33.476 32.2842C33.5723 29.6124 33.1638 26.6239 32.2243 23.3884ZM40.4705 14.7339C43.8983 14.7841 44.1918 12.6783 44.1918 12.6783C44.1918 12.6783 40.4382 10.5003 37.835 10.8458C37.8332 10.845 37.0411 14.6847 40.4705 14.7339Z" fill="white"/>
</svg>
