<svg width="41" height="41" viewBox="0 0 41 41" fill="none" xmlns="http://www.w3.org/2000/svg">
<path d="M20.5 0C9.19676 0 0 9.19676 0 20.5C0 31.8032 9.19676 41 20.5 41C31.8032 41 41 31.8032 41 20.5C41 9.19676 31.8032 0 20.5 0V0ZM2.0725 20.5C2.0725 17.3687 2.85786 14.418 4.24164 11.8325C4.50176 11.9658 4.75923 12.0581 5.00518 12.0823C6.73226 12.2551 6.38632 15.1905 7.75477 16.054C9.12556 16.9176 9.66645 18.0707 9.66645 18.0707C9.66645 18.0707 9.83928 22.4397 11.5651 23.3033C13.2896 24.1669 13.9803 25.8928 13.4612 27.7903C12.9436 29.689 12.9436 32.1069 14.1519 33.6608C15.3602 35.2136 18.6413 35.0408 17.9508 33.6608C17.2601 32.2797 16.2237 32.1066 16.5938 31.2431C16.9616 30.3795 19.332 28.9984 19.8495 27.6184C20.3671 26.2373 23.9906 24.3386 25.2 22.2667C26.4096 20.1949 22.6106 18.9853 20.5877 19.1597C18.5683 19.3313 17.432 17.9514 15.7049 16.1002C13.9778 14.2489 13.2871 15.7067 11.391 16.0527C9.49434 16.4001 8.80358 14.8462 7.94008 12.7743C7.0765 10.7027 9.49434 12.0839 10.185 9.80965C10.8757 7.53549 12.427 9.32156 13.7583 9.6675C15.0896 10.0134 15.8801 9.83915 16.3988 7.94042C16.9176 6.04172 20.0246 6.56049 20.5422 5.35097C21.0598 4.14144 17.434 5.52379 14.4986 4.14265C14.0155 3.91467 13.7902 3.64688 13.7401 3.36227C15.8349 2.53206 18.1117 2.07083 20.4986 2.07083C26.774 2.07083 32.3228 5.22654 35.6531 10.0309C35.3532 10.5626 34.9754 10.9496 34.5372 10.7561C33.4407 10.2718 33.7108 11.8131 32.5989 11.443C31.4829 11.0714 29.2589 11.2572 28.7 12.9267C28.144 14.5987 27.7045 15.3545 29.1459 16.81C30.5872 18.2655 30.7294 18.9792 30.7294 19.9068C30.732 20.8343 31.5032 21.1623 32.9292 20.8768C34.3552 20.591 35.5697 20.1619 35.5263 21.4328C35.4841 22.7036 34.3003 22.9024 35.229 23.8299C36.1554 24.759 37.4006 26.0719 34.8509 26.9151C32.304 27.7557 32.0603 28.7702 32.3178 30.4256C32.5703 32.0527 31.5068 32.6204 33.189 33.8437C29.8808 36.9891 25.4147 38.9289 20.4996 38.9289C10.3371 38.9292 2.07207 30.6615 2.07207 20.4999L2.0725 20.5Z" fill="white"/>
</svg>
